Coordinates
version=1
nRows=4
nColumns=107
inDegrees=yes

Units are S.I. units (second, meters, Newtons, ...)
If the header above contains a line with 'inDegrees', this indicates whether rotational values are in degrees (yes) or radians (no).

endheader
time	sternoclavicular_r2	sternoclavicular_r3	unrotscap_r3	unrotscap_r2	acromioclavicular_r2	acromioclavicular_r3	acromioclavicular_r1	unrothum_r1	unrothum_r3	unrothum_r2	elv_angle	shoulder_elv	shoulder1_r2	shoulder_rot	elbow_flexion	pro_sup	deviation	flexion	proximal_distal_r1	proximal_distal_r3	cmc_flexion	cmc_abduction	mp_flexion	ip_flexion	mcp2_flexion	mcp2_abduction	pm2_flexion	md2_flexion	mcp3_flexion	mcp3_abduction	pm3_flexion	md3_flexion	mcp4_flexion	mcp4_abduction	pm4_flexion	md4_flexion	mcp5_flexion	mcp5_abduction	pm5_flexion	md5_flexion	bicpt_tx	bicpt_ty	bicpt_tz	bicpt2_tx	bicpt2_ty	bicpt2_tz	ptpt_tx	ptpt_ty	ptpt_tz	FCUpt_tx	FCUpt_ty	FCUpt_tz	EDCpt_tx	EDCpt_ty	EDCpt_tz	APLpt_tx	APLpt_ty	APLpt_tz	FPLpt_tx	FPLpt_ty	FPLpt_tz	FPLpt2_tx	FPLpt2_ty	FPLpt2_tz	PEC1pt2_tx	PEC1pt2_ty	PEC1pt2_tz	PEC1pt3_tx	PEC1pt3_ty	PEC1pt3_tz	PEC2pt2_tx	PEC2pt2_ty	PEC2pt2_tz	PEC2pt3_tx	PEC2pt3_ty	PEC2pt3_tz	PEC3pt2_tx	PEC3pt2_ty	PEC3pt2_tz	PEC3pt3_tx	PEC3pt3_ty	PEC3pt3_tz	DELT2pt2a_tx	DELT2pt2a_ty	DELT2pt2a_tz	DELT2pt2_tx	DELT2pt2_ty	DELT2pt2_tz	LAT1pt2_tx	LAT1pt2_ty	LAT1pt2_tz	LAT1pt3_tx	LAT1pt3_ty	LAT1pt3_tz	LAT2pt2_tx	LAT2pt2_ty	LAT2pt2_tz	LAT2pt3_tx	LAT2pt3_ty	LAT2pt3_tz	LAT3pt2_tx	LAT3pt2_ty	LAT3pt2_tz	LAT3pt3_tx	LAT3pt3_ty	LAT3pt3_tz
      1.40000000	     -0.32551552	      0.13787301	     -0.13787301	      0.32551552	     -0.06591027	      0.53266364	      0.23942864	     -0.23942864	     -0.53266364	      0.06591027	     98.49688193	     77.06869386	     -1.71909489	    -20.41515162	     29.99538151	     41.81483196	      0.15126252	      0.00436258	      0.18655732	      0.00218129	     36.22338195	     -7.36908140	    -11.32797466	     -0.04024961	    -12.82284454	     11.45678035	     28.34568259	     -1.61050054	    -11.27139358	     -1.14315790	     15.56285883	     15.53201428	     -7.68708465	     -0.83516656	      3.12859841	     20.36175360	   -362.71432376	    -14.07985821	     -8.04659606	      5.05985752	      0.00089215	     -0.03103793	     -0.00485376	      0.01657406	     -0.01834839	     -0.00727400	      0.00446036	     -0.06689782	     -0.00341841	      0.00796346	     -0.18345685	     -0.00039807	     -0.00501777	      0.00145457	      0.00013251	     -0.00000448	     -0.00000179	     -0.00000896	     -0.00000573	     -0.00001719	     -0.00000967	     -0.00001284	     -0.00017664	     -0.00021196	      0.00252614	      0.00886291	      0.00616550	     -0.00826348	      0.01995225	     -0.01892466	      0.00252614	      0.00886291	      0.00616550	      0.00055661	      0.01849650	     -0.00971923	      0.00398193	      0.00492855	      0.01605012	      0.00000000	      0.00794471	      0.00000000	     -0.00723590	     -0.03343928	     -0.00655169	      0.01401468	     -0.00044472	     -0.00344364	     -0.00089914	      0.01507122	     -0.00616550	      0.00248333	      0.02175052	     -0.01798271	     -0.00603705	      0.01305887	     -0.00552326	     -0.01258790	      0.02757349	     -0.03087032	     -0.02363442	      0.01460025	     -0.00740716	     -0.01567065	      0.03185509	     -0.03857720
      1.43333333	     -0.32625932	      0.13818805	     -0.13818805	      0.32625932	     -0.06606088	      0.53388077	      0.23997573	     -0.23997573	     -0.53388077	      0.06606088	     98.23472131	     77.24479486	     -1.71451933	    -19.60921213	     30.39169066	     42.82852250	      0.14204426	     -0.04442989	      0.17625949	     -0.02221495	     35.90116750	    -10.06573437	    -11.26757907	      0.51595273	    -12.14224746	     11.47146551	     30.40515934	     -0.41514932	     -8.54233867	     -0.52436457	     17.70257562	     16.41986076	     -3.95410627	     -0.64870381	      5.68346842	     21.16020837	   -357.45531749	    -14.00939141	     -4.88356929	      5.12456897	      0.00090526	     -0.03108335	     -0.00486108	      0.01657054	     -0.01845605	     -0.00716247	      0.00438546	     -0.06694625	     -0.00350007	      0.00806624	     -0.18343509	     -0.00040349	     -0.00513941	      0.00149654	      0.00012395	      0.00004381	      0.00001752	      0.00008762	      0.00005608	      0.00016824	      0.00009463	     -0.00001285	     -0.00018148	     -0.00021777	      0.00253191	      0.00888316	      0.00617959	     -0.00828237	      0.01999784	     -0.01896790	      0.00253191	      0.00888316	      0.00617959	      0.00055788	      0.01853877	     -0.00974144	      0.00398853	      0.00493981	      0.01606600	      0.00000000	      0.00798133	      0.00000000	     -0.00725243	     -0.03351569	     -0.00658208	      0.01354973	     -0.00041996	     -0.00316373	     -0.00090119	      0.01510566	     -0.00617959	      0.00248900	      0.02180022	     -0.01802380	     -0.00605085	      0.01308871	     -0.00553588	     -0.01261666	      0.02763649	     -0.03094086	     -0.02368842	      0.01463361	     -0.00742409	     -0.01570645	      0.03192788	     -0.03866534
      1.46666667	     -0.32839098	      0.13909092	     -0.13909092	      0.32839098	     -0.06649249	      0.53736894	      0.24154364	     -0.24154364	     -0.53736894	      0.06649249	     97.73844669	     77.74948299	     -1.70585770	    -17.12939207	     30.40520415	     41.13615868	      0.10812670	     -0.20500252	      0.13717393	     -0.10250126	     36.12274039	    -12.74714107	    -13.54275805	     -0.07953147	    -10.07407084	     11.41935561	     33.22537117	      2.46237443	     -3.71685980	     -0.13704645	     19.23750923	     17.13875491	      2.20343940	     -0.90289718	      6.97880168	     20.73679530	   -349.62618275	    -13.98835452	     -4.94378464	      5.06940699	      0.00090571	     -0.03108490	     -0.00486133	      0.01657506	     -0.01845972	     -0.00734784	      0.00451050	     -0.06686539	     -0.00336374	      0.00789482	     -0.18347125	     -0.00039400	     -0.00493633	      0.00142666	      0.00013792	      0.00017455	      0.00006982	      0.00034911	      0.00022343	      0.00067029	      0.00037704	     -0.00001284	     -0.00017815	     -0.00021378	      0.00254846	      0.00894120	      0.00621996	     -0.00833648	      0.02012849	     -0.01909183	      0.00254846	      0.00894120	      0.00621996	      0.00056152	      0.01865989	     -0.00980508	      0.00400739	      0.00497209	      0.01611112	      0.00000000	      0.00808674	      0.00000000	     -0.00729982	     -0.03373467	     -0.00666955	      0.01206466	     -0.00034545	     -0.00236818	     -0.00090708	      0.01520436	     -0.00621996	      0.00250526	      0.02194265	     -0.01814156	     -0.00609038	      0.01317423	     -0.00557205	     -0.01269909	      0.02781706	     -0.03114301	     -0.02384319	      0.01472922	     -0.00747260	     -0.01580907	      0.03213648	     -0.03891797
      1.50000000	     -0.33008139	      0.13980690	     -0.13980690	      0.33008139	     -0.06683477	      0.54013508	      0.24278700	     -0.24278700	     -0.54013508	      0.06683477	     97.24158026	     78.14970395	     -1.69718575	    -15.32089152	     30.95886081	     41.22513953	      0.09653815	     -0.28725748	      0.12338794	     -0.14362874	     34.77755461	    -15.64285999	    -13.18284958	      0.27462438	     -8.34185461	     11.66847962	     35.40932612	      3.59550030	      0.00204692	      1.01210275	     22.01137695	     18.21560420	      6.94629796	     -0.52629599	     10.13264781	     21.82868553	   -343.47227279	    -13.81728812	     -0.89324865	      5.14362656	      0.00092402	     -0.03114836	     -0.00487155	      0.01657502	     -0.01861013	     -0.00733822	      0.00450393	     -0.06686964	     -0.00337091	      0.00790381	     -0.18346937	     -0.00039457	     -0.00494701	      0.00143031	      0.00013723	      0.00022482	      0.00008993	      0.00044964	      0.00028777	      0.00086331	      0.00048561	     -0.00001266	     -0.00019751	     -0.00023701	      0.00256158	      0.00898722	      0.00625198	     -0.00837939	      0.02023211	     -0.01919011	      0.00256158	      0.00898722	      0.00625198	      0.00056442	      0.01875594	     -0.00985555	      0.00402227	      0.00499768	      0.01614647	      0.00000000	      0.00817083	      0.00000000	     -0.00733740	     -0.03390832	     -0.00673933	      0.01092974	     -0.00029277	     -0.00185302	     -0.00091175	      0.01528262	     -0.00625198	      0.00251816	      0.02205560	     -0.01823495	     -0.00612173	      0.01324204	     -0.00560073	     -0.01276446	      0.02796025	     -0.03130332	     -0.02396593	      0.01480504	     -0.00751106	     -0.01589045	      0.03230190	     -0.03911830
